<svg xmlns="http://www.w3.org/2000/svg" xmlns:xlink="http://www.w3.org/1999/xlink" width="40" zoomAndPan="magnify" viewBox="0 0 30 30.000001" height="40" preserveAspectRatio="xMidYMid meet" version="1.0"><defs><clipPath id="a051d9bdc6"><path d="M 0.484375 8.851562 L 29.515625 8.851562 L 29.515625 20.9375 L 0.484375 20.9375 Z M 0.484375 8.851562 " clip-rule="nonzero"/></clipPath><clipPath id="1c98cec5a3"><path d="M 1.59375 20.144531 L 28.402344 20.144531 L 28.402344 29.03125 L 1.59375 29.03125 Z M 1.59375 20.144531 " clip-rule="nonzero"/></clipPath></defs><path fill="#ffffff" d="M 27.277344 6.757812 C 26.707031 5.863281 26.035156 5.019531 25.265625 4.25 C 22.523438 1.511719 18.878906 0 15 0 C 11.125 0 7.476562 1.511719 4.734375 4.25 C 3.964844 5.019531 3.292969 5.863281 2.726562 6.757812 C 2.300781 7.429688 1.933594 8.132812 1.625 8.859375 L 28.375 8.859375 C 28.066406 8.132812 27.703125 7.429688 27.277344 6.757812 " fill-opacity="1" fill-rule="nonzero"/><g clip-path="url(#a051d9bdc6)"><path fill="#3150aa" d="M 29.519531 14.515625 C 29.519531 12.539062 29.125 10.625 28.375 8.859375 L 1.625 8.859375 C 0.878906 10.625 0.484375 12.539062 0.484375 14.515625 C 0.484375 16.78125 1 18.964844 1.976562 20.9375 L 28.027344 20.9375 C 29 18.964844 29.519531 16.78125 29.519531 14.515625 " fill-opacity="1" fill-rule="nonzero"/></g><g clip-path="url(#1c98cec5a3)"><path fill="#bf1e36" d="M 1.625 20.175781 C 1.804688 20.535156 2.34375 21.652344 2.554688 22 C 3.160156 23 3.886719 23.933594 4.734375 24.78125 C 7.476562 27.523438 11.121094 29.035156 15 29.035156 C 18.878906 29.035156 22.523438 27.523438 25.265625 24.78125 C 26.113281 23.933594 26.84375 23 27.445312 22 C 27.65625 21.652344 28.199219 20.535156 28.375 20.175781 L 1.625 20.175781 " fill-opacity="1" fill-rule="nonzero"/></g></svg>