<svg xmlns="http://www.w3.org/2000/svg" xmlns:xlink="http://www.w3.org/1999/xlink" width="40" zoomAndPan="magnify" viewBox="0 0 30 30.000001" height="40" preserveAspectRatio="xMidYMid meet" version="1.0"><defs><clipPath id="e2bf84b439"><path d="M 0.484375 0 L 29.515625 0 L 29.515625 29 L 0.484375 29 Z M 0.484375 0 " clip-rule="nonzero"/></clipPath><clipPath id="49e5f9fdf6"><path d="M 0.484375 9 L 29.515625 9 L 29.515625 19 L 0.484375 19 Z M 0.484375 9 " clip-rule="nonzero"/></clipPath></defs><g clip-path="url(#e2bf84b439)"><path fill="#ffffff" d="M 14.988281 0.015625 C 14.492188 0.015625 14.003906 0.0429688 13.511719 0.09375 C 13.023438 0.148438 12.535156 0.222656 12.054688 0.328125 C 11.574219 0.429688 11.097656 0.558594 10.628906 0.710938 C 10.160156 0.863281 9.703125 1.042969 9.253906 1.242188 C 8.804688 1.445312 8.367188 1.667969 7.941406 1.917969 C 7.515625 2.164062 7.101562 2.433594 6.703125 2.722656 C 6.308594 3.015625 5.925781 3.324219 5.5625 3.65625 C 5.195312 3.988281 4.851562 4.335938 4.523438 4.703125 C 4.195312 5.070312 3.886719 5.453125 3.597656 5.855469 C 3.3125 6.253906 3.046875 6.667969 2.800781 7.09375 C 2.558594 7.523438 2.335938 7.960938 2.140625 8.410156 C 1.941406 8.863281 1.769531 9.324219 1.621094 9.792969 C 1.472656 10.261719 1.347656 10.734375 1.246094 11.21875 C 1.148438 11.699219 1.074219 12.1875 1.027344 12.675781 C 0.980469 13.164062 0.957031 13.65625 0.960938 14.148438 C 0.96875 14.640625 0.996094 15.128906 1.050781 15.621094 C 1.109375 16.109375 1.191406 16.59375 1.296875 17.074219 C 1.402344 17.554688 1.535156 18.027344 1.691406 18.492188 C 1.847656 18.960938 2.03125 19.417969 2.234375 19.863281 C 2.441406 20.3125 2.667969 20.746094 2.917969 21.167969 C 3.171875 21.59375 3.441406 22.003906 3.738281 22.398438 C 4.03125 22.792969 4.34375 23.171875 4.679688 23.53125 C 5.011719 23.894531 5.367188 24.238281 5.734375 24.5625 C 6.105469 24.886719 6.492188 25.191406 6.894531 25.472656 C 7.296875 25.757812 7.714844 26.019531 8.144531 26.261719 C 8.574219 26.5 9.015625 26.71875 9.46875 26.914062 C 9.921875 27.105469 10.382812 27.277344 10.851562 27.421875 C 11.324219 27.566406 11.800781 27.6875 12.285156 27.78125 C 12.769531 27.878906 13.253906 27.945312 13.746094 27.992188 C 14.238281 28.035156 14.726562 28.050781 15.222656 28.042969 C 15.714844 28.035156 16.203125 28.003906 16.695312 27.945312 C 17.183594 27.882812 17.667969 27.800781 18.148438 27.6875 C 18.628906 27.578125 19.101562 27.441406 19.566406 27.28125 C 20.03125 27.125 20.488281 26.9375 20.933594 26.730469 C 21.382812 26.523438 21.816406 26.292969 22.238281 26.039062 C 22.660156 25.785156 23.066406 25.507812 23.460938 25.210938 C 23.855469 24.914062 24.230469 24.597656 24.589844 24.261719 C 24.949219 23.925781 25.292969 23.574219 25.613281 23.199219 C 25.9375 22.828125 26.238281 22.441406 26.519531 22.035156 C 26.800781 21.632812 27.058594 21.214844 27.296875 20.785156 C 27.535156 20.351562 27.75 19.910156 27.941406 19.457031 C 28.132812 19.003906 28.296875 18.539062 28.4375 18.070312 C 28.582031 17.597656 28.699219 17.121094 28.789062 16.636719 C 28.882812 16.152344 28.949219 15.667969 28.988281 15.175781 C 29.027344 14.6875 29.042969 14.195312 29.03125 13.703125 C 29.019531 13.210938 28.980469 12.722656 28.917969 12.234375 C 28.855469 11.746094 28.765625 11.261719 28.652344 10.785156 C 28.539062 10.304688 28.398438 9.835938 28.234375 9.371094 C 27.996094 8.691406 27.703125 8.03125 27.363281 7.398438 C 27.019531 6.761719 26.632812 6.15625 26.195312 5.582031 C 25.761719 5.007812 25.28125 4.46875 24.765625 3.964844 C 24.246094 3.464844 23.691406 3.003906 23.101562 2.589844 C 22.511719 2.171875 21.894531 1.804688 21.246094 1.480469 C 20.601562 1.160156 19.933594 0.890625 19.242188 0.671875 C 18.554688 0.453125 17.855469 0.289062 17.140625 0.179688 C 16.425781 0.0703125 15.710938 0.015625 14.988281 0.015625 Z M 14.988281 0.015625 " fill-opacity="1" fill-rule="nonzero"/></g><path fill="#009246" d="M 1.738281 18.714844 L 28.234375 18.714844 C 27.996094 19.394531 27.703125 20.054688 27.359375 20.6875 C 27.019531 21.324219 26.628906 21.925781 26.195312 22.503906 C 25.757812 23.078125 25.28125 23.617188 24.761719 24.117188 C 24.242188 24.621094 23.691406 25.078125 23.101562 25.496094 C 22.511719 25.910156 21.890625 26.28125 21.246094 26.601562 C 20.597656 26.921875 19.929688 27.191406 19.242188 27.410156 C 18.554688 27.628906 17.855469 27.792969 17.140625 27.902344 C 16.425781 28.015625 15.707031 28.070312 14.988281 28.070312 C 14.265625 28.070312 13.546875 28.015625 12.832031 27.902344 C 12.121094 27.792969 11.417969 27.628906 10.730469 27.410156 C 10.042969 27.191406 9.375 26.921875 8.726562 26.601562 C 8.082031 26.28125 7.464844 25.910156 6.875 25.496094 C 6.285156 25.078125 5.730469 24.621094 5.210938 24.117188 C 4.691406 23.617188 4.214844 23.078125 3.777344 22.503906 C 3.34375 21.925781 2.953125 21.324219 2.613281 20.6875 C 2.269531 20.054688 1.980469 19.394531 1.738281 18.714844 Z M 1.738281 18.714844 " fill-opacity="1" fill-rule="nonzero"/><g clip-path="url(#49e5f9fdf6)"><path fill="#ed2939" d="M 0.9375 14.042969 C 0.9375 12.4375 1.203125 10.882812 1.738281 9.371094 L 28.234375 9.371094 C 28.769531 10.882812 29.035156 12.441406 29.035156 14.042969 C 29.035156 15.644531 28.769531 17.203125 28.234375 18.714844 L 1.738281 18.714844 C 1.203125 17.203125 0.9375 15.644531 0.9375 14.042969 Z M 0.9375 14.042969 " fill-opacity="1" fill-rule="nonzero"/></g><path fill="#00a1de" d="M 1.738281 9.371094 C 1.980469 8.691406 2.269531 8.03125 2.613281 7.398438 C 2.953125 6.761719 3.34375 6.15625 3.777344 5.582031 C 4.214844 5.007812 4.691406 4.46875 5.210938 3.96875 C 5.730469 3.464844 6.285156 3.007812 6.875 2.589844 C 7.464844 2.175781 8.082031 1.804688 8.726562 1.484375 C 9.375 1.164062 10.042969 0.894531 10.730469 0.675781 C 11.417969 0.457031 12.121094 0.292969 12.832031 0.183594 C 13.546875 0.0703125 14.265625 0.015625 14.988281 0.015625 C 15.707031 0.015625 16.425781 0.0703125 17.140625 0.183594 C 17.855469 0.292969 18.554688 0.457031 19.242188 0.675781 C 19.929688 0.894531 20.597656 1.164062 21.246094 1.484375 C 21.890625 1.804688 22.511719 2.175781 23.101562 2.589844 C 23.691406 3.007812 24.242188 3.464844 24.761719 3.96875 C 25.28125 4.46875 25.757812 5.007812 26.195312 5.582031 C 26.628906 6.15625 27.019531 6.761719 27.359375 7.398438 C 27.703125 8.03125 27.996094 8.691406 28.234375 9.371094 Z M 1.738281 9.371094 " fill-opacity="1" fill-rule="nonzero"/><path fill="#f2f0f0" d="M 19.207031 12.816406 L 20.601562 12.1875 L 19.917969 13.554688 L 21.351562 14.089844 L 19.898438 14.578125 L 20.53125 15.96875 L 19.160156 15.289062 L 18.625 16.71875 L 18.136719 15.269531 L 16.742188 15.898438 L 17.425781 14.53125 L 15.992188 13.996094 L 17.445312 13.507812 L 16.8125 12.117188 L 18.179688 12.796875 L 18.71875 11.367188 Z M 19.207031 12.816406 " fill-opacity="1" fill-rule="nonzero"/><path fill="#f2f0f0" d="M 17.378906 16.351562 C 17.210938 16.644531 17.015625 16.917969 16.789062 17.167969 C 16.566406 17.417969 16.316406 17.640625 16.039062 17.839844 C 15.765625 18.035156 15.472656 18.199219 15.164062 18.335938 C 14.855469 18.46875 14.535156 18.566406 14.203125 18.632812 C 13.871094 18.695312 13.535156 18.726562 13.199219 18.71875 C 12.863281 18.710938 12.527344 18.667969 12.199219 18.585938 C 11.871094 18.507812 11.558594 18.394531 11.253906 18.246094 C 10.949219 18.097656 10.664062 17.917969 10.402344 17.710938 C 10.136719 17.5 9.898438 17.265625 9.683594 17.003906 C 9.46875 16.746094 9.285156 16.464844 9.132812 16.164062 C 8.980469 15.863281 8.859375 15.550781 8.773438 15.222656 C 8.691406 14.898438 8.640625 14.566406 8.628906 14.230469 C 8.613281 13.890625 8.636719 13.558594 8.695312 13.226562 C 8.753906 12.894531 8.847656 12.570312 8.976562 12.261719 C 9.105469 11.949219 9.265625 11.652344 9.457031 11.378906 C 9.652344 11.101562 9.871094 10.847656 10.117188 10.617188 C 10.367188 10.386719 10.636719 10.1875 10.925781 10.015625 C 11.214844 9.84375 11.523438 9.707031 11.84375 9.601562 C 12.164062 9.496094 12.492188 9.425781 12.828125 9.390625 C 13.164062 9.355469 13.5 9.359375 13.835938 9.398438 C 14.171875 9.433594 14.496094 9.507812 14.816406 9.617188 C 15.136719 9.726562 15.441406 9.867188 15.730469 10.042969 C 16.019531 10.214844 16.285156 10.421875 16.53125 10.652344 C 16.777344 10.882812 16.992188 11.140625 17.183594 11.417969 C 17.007812 11.234375 16.816406 11.070312 16.609375 10.925781 C 16.402344 10.78125 16.183594 10.660156 15.949219 10.558594 C 15.71875 10.460938 15.476562 10.382812 15.230469 10.332031 C 14.980469 10.28125 14.730469 10.253906 14.476562 10.253906 C 14.226562 10.253906 13.972656 10.277344 13.726562 10.328125 C 13.476562 10.375 13.238281 10.449219 13.003906 10.546875 C 12.769531 10.648438 12.550781 10.765625 12.339844 10.910156 C 12.132812 11.054688 11.941406 11.214844 11.765625 11.398438 C 11.589844 11.578125 11.433594 11.777344 11.296875 11.992188 C 11.164062 12.203125 11.050781 12.429688 10.960938 12.664062 C 10.871094 12.902344 10.804688 13.144531 10.761719 13.394531 C 10.722656 13.640625 10.707031 13.894531 10.71875 14.144531 C 10.726562 14.398438 10.761719 14.648438 10.824219 14.894531 C 10.882812 15.136719 10.96875 15.375 11.078125 15.601562 C 11.183594 15.832031 11.316406 16.046875 11.46875 16.25 C 11.621094 16.449219 11.789062 16.636719 11.980469 16.800781 C 12.171875 16.96875 12.375 17.117188 12.59375 17.242188 C 12.8125 17.367188 13.042969 17.472656 13.285156 17.550781 C 13.523438 17.628906 13.769531 17.683594 14.019531 17.714844 C 14.273438 17.746094 14.523438 17.75 14.777344 17.726562 C 15.027344 17.707031 15.277344 17.660156 15.519531 17.589844 C 15.761719 17.519531 15.996094 17.421875 16.21875 17.304688 C 16.441406 17.1875 16.652344 17.046875 16.847656 16.886719 C 17.042969 16.726562 17.21875 16.546875 17.378906 16.351562 Z M 17.378906 16.351562 " fill-opacity="1" fill-rule="nonzero"/></svg>