<svg xmlns="http://www.w3.org/2000/svg" xmlns:xlink="http://www.w3.org/1999/xlink" width="40" zoomAndPan="magnify" viewBox="0 0 30 30.000001" height="40" preserveAspectRatio="xMidYMid meet" version="1.0"><defs><clipPath id="029430a307"><path d="M 0.484375 0 L 29.515625 0 L 29.515625 29 L 0.484375 29 Z M 0.484375 0 " clip-rule="nonzero"/></clipPath><clipPath id="405d034daa"><path d="M 0.484375 9 L 29.515625 9 L 29.515625 20 L 0.484375 20 Z M 0.484375 9 " clip-rule="nonzero"/></clipPath></defs><g clip-path="url(#029430a307)"><path fill="#ffffff" d="M 14.898438 0.015625 C 14.394531 0.015625 13.890625 0.0429688 13.386719 0.09375 C 12.886719 0.148438 12.390625 0.226562 11.894531 0.332031 C 11.402344 0.4375 10.917969 0.570312 10.4375 0.726562 C 9.957031 0.882812 9.488281 1.066406 9.027344 1.273438 C 8.566406 1.480469 8.117188 1.710938 7.683594 1.964844 C 7.246094 2.214844 6.824219 2.492188 6.417969 2.789062 C 6.011719 3.089844 5.621094 3.40625 5.246094 3.746094 C 4.875 4.085938 4.519531 4.441406 4.183594 4.820312 C 3.847656 5.195312 3.53125 5.589844 3.238281 6 C 2.945312 6.410156 2.671875 6.832031 2.421875 7.269531 C 2.171875 7.710938 1.945312 8.160156 1.746094 8.621094 C 1.542969 9.082031 1.363281 9.554688 1.210938 10.035156 C 1.058594 10.515625 0.933594 11.003906 0.832031 11.496094 C 0.730469 11.992188 0.65625 12.488281 0.605469 12.992188 C 0.558594 13.492188 0.535156 13.996094 0.539062 14.5 C 0.542969 15.007812 0.574219 15.507812 0.632812 16.011719 C 0.6875 16.511719 0.773438 17.007812 0.882812 17.5 C 0.992188 17.992188 1.125 18.476562 1.285156 18.957031 C 1.449219 19.433594 1.632812 19.902344 1.84375 20.359375 C 2.050781 20.820312 2.285156 21.265625 2.542969 21.699219 C 2.800781 22.132812 3.078125 22.554688 3.378906 22.957031 C 3.679688 23.363281 4.003906 23.75 4.34375 24.121094 C 4.6875 24.492188 5.046875 24.84375 5.425781 25.175781 C 5.804688 25.507812 6.199219 25.820312 6.613281 26.113281 C 7.023438 26.402344 7.449219 26.671875 7.890625 26.917969 C 8.332031 27.164062 8.785156 27.386719 9.246094 27.585938 C 9.710938 27.785156 10.183594 27.960938 10.664062 28.109375 C 11.148438 28.257812 11.636719 28.378906 12.132812 28.476562 C 12.625 28.574219 13.125 28.648438 13.628906 28.691406 C 14.128906 28.738281 14.632812 28.753906 15.136719 28.746094 C 15.640625 28.738281 16.144531 28.703125 16.644531 28.644531 C 17.144531 28.582031 17.640625 28.496094 18.132812 28.382812 C 18.625 28.269531 19.109375 28.132812 19.585938 27.96875 C 20.0625 27.804688 20.53125 27.613281 20.988281 27.402344 C 21.445312 27.1875 21.890625 26.949219 22.320312 26.691406 C 22.753906 26.429688 23.171875 26.148438 23.574219 25.84375 C 23.976562 25.539062 24.363281 25.214844 24.730469 24.871094 C 25.097656 24.527344 25.449219 24.164062 25.777344 23.78125 C 26.109375 23.398438 26.417969 23.003906 26.703125 22.589844 C 26.992188 22.175781 27.257812 21.746094 27.5 21.304688 C 27.746094 20.863281 27.964844 20.410156 28.160156 19.945312 C 28.355469 19.480469 28.523438 19.003906 28.671875 18.523438 C 28.816406 18.039062 28.933594 17.550781 29.027344 17.054688 C 29.121094 16.558594 29.191406 16.058594 29.230469 15.554688 C 29.273438 15.054688 29.289062 14.550781 29.277344 14.046875 C 29.265625 13.542969 29.226562 13.039062 29.160156 12.539062 C 29.097656 12.039062 29.003906 11.542969 28.890625 11.054688 C 28.773438 10.5625 28.628906 10.078125 28.460938 9.605469 C 28.214844 8.90625 27.917969 8.230469 27.566406 7.582031 C 27.21875 6.929688 26.820312 6.308594 26.375 5.71875 C 25.925781 5.128906 25.4375 4.578125 24.90625 4.0625 C 24.375 3.550781 23.808594 3.078125 23.207031 2.652344 C 22.601562 2.226562 21.96875 1.847656 21.304688 1.519531 C 20.644531 1.1875 19.960938 0.910156 19.257812 0.6875 C 18.550781 0.464844 17.832031 0.296875 17.101562 0.183594 C 16.371094 0.0703125 15.636719 0.015625 14.898438 0.015625 Z M 14.898438 0.015625 " fill-opacity="1" fill-rule="nonzero"/></g><path fill="#009246" d="M 1.332031 19.183594 L 28.460938 19.183594 C 28.214844 19.882812 27.917969 20.554688 27.566406 21.207031 C 27.214844 21.855469 26.816406 22.476562 26.371094 23.066406 C 25.925781 23.65625 25.4375 24.207031 24.90625 24.722656 C 24.375 25.238281 23.808594 25.707031 23.203125 26.132812 C 22.601562 26.558594 21.96875 26.9375 21.304688 27.269531 C 20.644531 27.597656 19.960938 27.875 19.253906 28.097656 C 18.550781 28.320312 17.832031 28.488281 17.101562 28.601562 C 16.371094 28.714844 15.636719 28.773438 14.898438 28.773438 C 14.15625 28.773438 13.421875 28.714844 12.691406 28.601562 C 11.960938 28.488281 11.246094 28.320312 10.539062 28.097656 C 9.835938 27.875 9.152344 27.597656 8.488281 27.269531 C 7.828125 26.9375 7.195312 26.558594 6.589844 26.132812 C 5.988281 25.707031 5.421875 25.238281 4.890625 24.722656 C 4.359375 24.207031 3.871094 23.65625 3.421875 23.066406 C 2.976562 22.476562 2.578125 21.855469 2.230469 21.207031 C 1.878906 20.554688 1.578125 19.882812 1.332031 19.183594 Z M 1.332031 19.183594 " fill-opacity="1" fill-rule="nonzero"/><g clip-path="url(#405d034daa)"><path fill="#ed2939" d="M 0.515625 14.394531 C 0.511719 12.75 0.785156 11.152344 1.332031 9.605469 L 28.460938 9.605469 C 29.007812 11.152344 29.28125 12.75 29.28125 14.394531 C 29.28125 16.035156 29.007812 17.632812 28.460938 19.183594 L 1.332031 19.183594 C 0.785156 17.632812 0.511719 16.039062 0.515625 14.394531 Z M 0.515625 14.394531 " fill-opacity="1" fill-rule="nonzero"/></g><path fill="#00a1de" d="M 1.332031 9.605469 C 1.578125 8.90625 1.878906 8.234375 2.226562 7.582031 C 2.578125 6.929688 2.976562 6.3125 3.421875 5.722656 C 3.871094 5.132812 4.359375 4.578125 4.890625 4.066406 C 5.421875 3.550781 5.988281 3.082031 6.589844 2.652344 C 7.195312 2.226562 7.828125 1.847656 8.488281 1.519531 C 9.152344 1.191406 9.835938 0.914062 10.539062 0.691406 C 11.246094 0.464844 11.960938 0.296875 12.691406 0.183594 C 13.421875 0.0703125 14.15625 0.015625 14.898438 0.015625 C 15.636719 0.015625 16.371094 0.0703125 17.101562 0.183594 C 17.832031 0.296875 18.550781 0.464844 19.253906 0.691406 C 19.960938 0.914062 20.644531 1.191406 21.304688 1.519531 C 21.96875 1.847656 22.601562 2.226562 23.203125 2.652344 C 23.808594 3.082031 24.375 3.550781 24.90625 4.066406 C 25.4375 4.578125 25.925781 5.132812 26.371094 5.722656 C 26.816406 6.3125 27.214844 6.929688 27.566406 7.582031 C 27.917969 8.234375 28.214844 8.90625 28.460938 9.605469 Z M 1.332031 9.605469 " fill-opacity="1" fill-rule="nonzero"/><path fill="#f2f0f0" d="M 19.21875 13.136719 L 20.644531 12.488281 L 19.945312 13.890625 L 21.414062 14.441406 L 19.925781 14.941406 L 20.574219 16.367188 L 19.171875 15.667969 L 18.621094 17.136719 L 18.121094 15.652344 L 16.695312 16.296875 L 17.394531 14.894531 L 15.925781 14.34375 L 17.414062 13.847656 L 16.765625 12.417969 L 18.167969 13.117188 L 18.71875 11.652344 Z M 19.21875 13.136719 " fill-opacity="1" fill-rule="nonzero"/><path fill="#f2f0f0" d="M 17.347656 16.761719 C 17.175781 17.0625 16.976562 17.339844 16.742188 17.597656 C 16.511719 17.855469 16.257812 18.082031 15.976562 18.285156 C 15.695312 18.488281 15.398438 18.65625 15.078125 18.792969 C 14.761719 18.929688 14.433594 19.03125 14.09375 19.097656 C 13.753906 19.164062 13.414062 19.195312 13.066406 19.1875 C 12.722656 19.179688 12.382812 19.132812 12.046875 19.050781 C 11.710938 18.96875 11.386719 18.855469 11.074219 18.703125 C 10.765625 18.550781 10.472656 18.367188 10.203125 18.152344 C 9.933594 17.9375 9.6875 17.699219 9.46875 17.429688 C 9.25 17.164062 9.0625 16.875 8.902344 16.566406 C 8.746094 16.257812 8.625 15.9375 8.539062 15.605469 C 8.449219 15.269531 8.398438 14.929688 8.386719 14.585938 C 8.371094 14.238281 8.394531 13.894531 8.457031 13.554688 C 8.515625 13.214844 8.613281 12.886719 8.746094 12.566406 C 8.875 12.246094 9.039062 11.945312 9.238281 11.660156 C 9.433594 11.378906 9.660156 11.117188 9.914062 10.882812 C 10.167969 10.648438 10.441406 10.441406 10.738281 10.265625 C 11.039062 10.089844 11.351562 9.949219 11.679688 9.839844 C 12.007812 9.734375 12.34375 9.660156 12.6875 9.625 C 13.03125 9.589844 13.375 9.59375 13.71875 9.632812 C 14.0625 9.671875 14.398438 9.746094 14.722656 9.855469 C 15.050781 9.96875 15.363281 10.113281 15.660156 10.292969 C 15.953125 10.472656 16.226562 10.679688 16.476562 10.917969 C 16.730469 11.15625 16.953125 11.417969 17.144531 11.703125 C 16.96875 11.515625 16.769531 11.347656 16.558594 11.199219 C 16.347656 11.050781 16.121094 10.925781 15.882812 10.824219 C 15.644531 10.71875 15.398438 10.644531 15.144531 10.589844 C 14.890625 10.535156 14.636719 10.511719 14.378906 10.507812 C 14.117188 10.507812 13.859375 10.53125 13.605469 10.582031 C 13.351562 10.636719 13.105469 10.710938 12.867188 10.8125 C 12.628906 10.914062 12.402344 11.035156 12.191406 11.183594 C 11.976562 11.328125 11.777344 11.496094 11.597656 11.683594 C 11.417969 11.867188 11.261719 12.070312 11.121094 12.289062 C 10.980469 12.507812 10.867188 12.738281 10.773438 12.980469 C 10.683594 13.222656 10.613281 13.472656 10.574219 13.726562 C 10.53125 13.984375 10.515625 14.242188 10.527344 14.5 C 10.535156 14.757812 10.574219 15.011719 10.632812 15.265625 C 10.695312 15.515625 10.78125 15.757812 10.894531 15.992188 C 11.003906 16.226562 11.140625 16.449219 11.292969 16.65625 C 11.449219 16.863281 11.625 17.050781 11.820312 17.222656 C 12.015625 17.394531 12.222656 17.542969 12.449219 17.671875 C 12.671875 17.804688 12.90625 17.910156 13.152344 17.988281 C 13.398438 18.070312 13.652344 18.128906 13.910156 18.15625 C 14.164062 18.1875 14.421875 18.191406 14.683594 18.171875 C 14.941406 18.148438 15.195312 18.101562 15.441406 18.03125 C 15.691406 17.957031 15.929688 17.859375 16.160156 17.738281 C 16.386719 17.617188 16.601562 17.472656 16.800781 17.308594 C 17.003906 17.144531 17.183594 16.960938 17.347656 16.761719 Z M 17.347656 16.761719 " fill-opacity="1" fill-rule="nonzero"/></svg>